<?xml version="1.0" encoding="utf-8"?>
<svg xmlns="http://www.w3.org/2000/svg" xmlns:xlink="http://www.w3.org/1999/xlink" >
    <symbol viewBox="0 0 14 8" id="arrow-down" > 
        <path d="M1 1L7 7L13 1"  stroke-width="2" stroke-linecap="round" stroke-linejoin="round"/> 
    </symbol>  
    <symbol viewBox="0 0 823 377" id="bg-R" >  
        <path d="M823 369.165C657.5 427.807 711 138.015 415 138.015C133.5 180.006 143.687 26.1677 0 0H823V369.165Z"/> 
    </symbol>  
    <symbol viewBox="0 0 858 397"  id="bg-L" >  
        <path d="M0 8.27109C172.538 -53.6371 116.763 252.297 425.351 252.297C718.823 207.967 708.202 370.375 858 398H0V8.27109Z"/> 
    </symbol>  
    <symbol viewBox="0 0 16 16" id="close"> 
        <path d="M1.14286 16C0.850446 16 0.558036 15.8884 0.334821 15.6652C-0.111607 15.2188 -0.111607 14.4955 0.334821 14.0491L14.0491 0.334821C14.4955 -0.111607 15.2188 -0.111607 15.6652 0.334821C16.1116 0.78125 16.1116 1.50446 15.6652 1.95089L1.95089 15.6652C1.72768 15.8884 1.43527 16 1.14286 16Z"  />
        <path d="M14.8571 16C14.5647 16 14.2723 15.8884 14.0491 15.6652L0.334821 1.95089C-0.111607 1.50446 -0.111607 0.78125 0.334821 0.334821C0.78125 -0.111607 1.50446 -0.111607 1.95089 0.334821L15.6652 14.0491C16.1116 14.4955 16.1116 15.2188 15.6652 15.6652C15.442 15.8884 15.1496 16 14.8571 16Z"  />
    </symbol>
    <symbol viewBox="0 0 622 795" id="big-logo" >
        <g opacity="0.05">
            <path d="M342.303 68.2139L553.781 279.693L424.628 408.852L458.734 442.959L622 279.693L342.305 0L307.813 34.4931L341.919 68.5986L342.303 68.2139Z" />
            <path d="M279.696 726.583L68.2156 515.102L197.375 385.943L163.268 351.836L0 515.105L279.694 794.798L314.189 760.304L280.083 726.197L279.696 726.583Z" />
            <path d="M286.18 406.531L286.1 406.611L389.574 510.085C403.712 524.224 411.654 543.4 411.654 563.394C411.654 583.389 403.711 602.565 389.574 616.704L314.19 692.087L348.296 726.193L423.68 650.81C446.587 627.888 459.574 596.886 459.843 564.482C460.112 532.077 447.642 500.863 425.119 477.565C424.618 477.046 424.192 476.485 423.683 475.976L407.648 459.94L335.905 388.197L232.424 284.717C218.285 270.577 210.342 251.4 210.342 231.404C210.342 211.408 218.285 192.231 232.424 178.092L307.808 102.708L273.702 68.6021L198.318 143.986C175.421 166.898 162.434 197.885 162.155 230.276C161.876 262.668 174.327 293.874 196.826 317.177L197.375 317.727L286.18 406.531Z" />
        </g>
    </symbol>
     <symbol viewBox="0 0 16 16" id="arrow-right">  
        <path d="M1 8H15M15 8L8 1M15 8L8 15"  stroke-width="2" stroke-linecap="round" stroke-linejoin="round"/>     
    </symbol> 
    <symbol viewBox="0 0 8 5" id="down">   
        <path d="M0 0L4 5L8 0H0Z"  /> 
    </symbol>
     <symbol viewBox="0 0 17 13" id="choose"> 
        <path d="M15.0655 0.346129L5.66662 10.1471L1.93449 6.25529C1.49248 5.79378 0.773938 5.79378 0.331931 6.25529C-0.110644 6.71679 -0.110644 7.46489 0.331931 7.9264L4.86534 12.6537C5.08634 12.8848 5.37648 13 5.66662 13C5.95676 13 6.24689 12.8848 6.4679 12.6537L16.6681 2.01724C17.1106 1.55573 17.1106 0.807634 16.6681 0.346129C16.2255 -0.115376 15.5081 -0.115376 15.0655 0.346129Z"  />
    </symbol>
    <symbol viewBox="0 0 12 12" id="plus-2">         
        <path d="M6 1V11M1 6H11"  stroke-width="2" stroke-linecap="round" stroke-linejoin="round"/> 
    </symbol> 
      <symbol viewBox="0 0 12 20" id="chevron-left">        
        <path d="M0 9.96143C0 10.3545 0.145996 10.6914 0.460449 10.9834L9.19775 19.541C9.44482 19.7881 9.75928 19.9229 10.1299 19.9229C10.8711 19.9229 11.4663 19.3389 11.4663 18.5864C11.4663 18.2158 11.3091 17.8901 11.062 17.6318L3.18945 9.96143L11.062 2.29102C11.3091 2.03271 11.4663 1.6958 11.4663 1.33643C11.4663 0.583984 10.8711 0 10.1299 0C9.75928 0 9.44482 0.134766 9.19775 0.381836L0.460449 8.92822C0.145996 9.23145 0 9.56836 0 9.96143Z" />
    </symbol>
    <symbol viewBox="0 0 18 18" id="chevron-left">         
        <path d="M9 16.5C13.1421 16.5 16.5 13.1421 16.5 9C16.5 4.85786 13.1421 1.5 9 1.5C4.85786 1.5 1.5 4.85786 1.5 9C1.5 13.1421 4.85786 16.5 9 16.5Z"  stroke-width="1.5" stroke-linecap="round" stroke-linejoin="round"/>
        <path d="M1.5 9H16.5"  stroke-width="1.5" stroke-linecap="round" stroke-linejoin="round"/>
        <path d="M9 1.5C10.876 3.55376 11.9421 6.21903 12 9C11.9421 11.781 10.876 14.4462 9 16.5C7.12404 14.4462 6.05794 11.781 6 9C6.05794 6.21903 7.12404 3.55376 9 1.5V1.5Z"  stroke-width="1.5" stroke-linecap="round" stroke-linejoin="round"/>
    </symbol>
</svg>